{"title":"Filth [2013] R5 DVDRIP x264 AC3 TiTAN YG","uid":9504492,"size":1500780470,"categoryP":"video","categoryS":"movies","magnet":"?xt=urn:btih:8a8142a37e5828572cc0cebb0e451af45aa64a8f&amp;dn=Filth+%5B2013%5D+R5+DVDRIP+x264+AC3+TiTAN+YG&amp;tr=udp%3A%2F%2Ftracker.openbittorrent.com%3A80&amp;tr=udp%3A%2F%2Fopen.demonii.com%3A1337&amp;tr=udp%3A%2F%2Ftracker.coppersurfer.tk%3A6969&amp;tr=udp%3A%2F%2Fexodus.desync.com%3A6969","seeders":1,"leechers":0,"uploader":"yerisan710","files":-1,"time":1390290372,"description":"-------------------------------------------------------------------------------\n                               Yerisan Group\n-------------------------------------------------------------------------------\n                         (for your consideration)\n\n*******************************************************************************\n        Filth [2013] R5 DVDRIP x264 AC3 TiTAN YG    \n*******************************************************************************\n\n[Source DVD9/Webrip]\n\n-------------------------------------------------------------------------------\n     General\n-------------------------------------------------------------------------------\n\nFormat: Matroska\nFormat version: Version 2\nFile size: 1.40 GiB\nDuration: 1h 33mn\nOverall bit rate: 2 138 Kbps\nEncoded date: UTC 2014-01-21 03:05:06\nWriting application: mkvmerge v6.5.0 ('Isn't she lovely') built on Oct 20 2013 12:50:05\nWriting library: libebml v1.3.0 + libmatroska v1.4.1\n\n-------------------------------------------------------------------------------\n     Video\n-------------------------------------------------------------------------------\nID: 1\nFormat: AVC\nFormat/Info: Advanced Video Codec\nFormat profile: &lt;a class=&quot;__cf_email__&quot; href=&quot;/cdn-cgi/l/email-protection&quot; data-cfemail=&quot;4d05242a250d017e637d&quot;&gt;[email&amp;#160;protected]&lt;/a&gt;&lt;script cf-hash='f9e31' type=&quot;text/javascript&quot;&gt;\n/* &lt;![CDATA[ */!function(){try{var t=&quot;currentScript&quot;in document?document.currentScript:function(){for(var t=document.getElementsByTagName(&quot;script&quot;),e=t.length;e--;)if(t[e].getAttribute(&quot;cf-hash&quot;))return t[e]}();if(t&amp;&amp;t.previousSibling){var e,r,n,i,c=t.previousSibling,a=c.getAttribute(&quot;data-cfemail&quot;);if(a){for(e=&quot;&quot;,r=parseInt(a.substr(0,2),16),n=2;a.length-n;n+=2)i=parseInt(a.substr(n,2),16)^r,e+=String.fromCharCode(i);e=document.createTextNode(e),c.parentNode.replaceChild(e,c)}}}catch(u){}}();/* ]]&gt; */&lt;/script&gt;\nFormat settings, CABAC: Yes\nFormat settings, ReFrames: 4 frames\nCodec ID: V_MPEG4/ISO/AVC\nDuration: 1h 33mn\nBit rate: 1 922 Kbps\nWidth: 720 pixels\nHeight: 304 pixels\nDisplay aspect ratio: 2.35:1\nFrame rate mode: Constant\nFrame rate: 25.000 fps\nColor space: YUV\nChroma subsampling: 4:2:0\nBit depth: 8 bits\nScan type: Progressive\nBits/(Pixel*Frame): 0.351\nStream size: 1.22 GiB (88%)\nWriting library: x264 core 138 r2358 9e941d1\nDefault: Yes\nForced: No\n\n-------------------------------------------------------------------------------\n     Audio\n-------------------------------------------------------------------------------\nID: 2\nFormat: AC-3\nFormat/Info: Audio Coding 3\nMode extension: CM (complete main)\nFormat settings, Endianness: Big\nCodec ID: A_AC3\nDuration: 1h 33mn\nBit rate mode: Constant\nBit rate: 224 Kbps\nChannel(s): 2 channels\nChannel positions: Front: L R\nSampling rate: 44.1 KHz\nBit depth: 16 bits\nCompression mode: Lossy\nStream size: 150 MiB (10%)\nLanguage: English\nDefault: Yes\nForced: No\n-------------------------------------------------------------------------------\n-------------------------------------------------------------------------------\nScreenShot..:\n &lt;a href=&quot;\nhttp://www.dmtinc.cl/imagenes/jvSx5.png&quot; rel=&quot;nofollow&quot; target=&quot;_NEW&quot;&gt;\nhttp://www.dmtinc.cl/imagenes/jvSx5.png&lt;/a&gt; &lt;a href=&quot;\nhttp://www.dmtinc.cl/imagenes/ATka.png&quot; rel=&quot;nofollow&quot; target=&quot;_NEW&quot;&gt;\nhttp://www.dmtinc.cl/imagenes/ATka.png&lt;/a&gt; &lt;a href=&quot;\nhttp://www.dmtinc.cl/imagenes/H6n92.png&quot; rel=&quot;nofollow&quot; target=&quot;_NEW&quot;&gt;\nhttp://www.dmtinc.cl/imagenes/H6n92.png&lt;/a&gt; &lt;a href=&quot;\nhttp://www.dmtinc.cl/imagenes/VvTk0.png&quot; rel=&quot;nofollow&quot; target=&quot;_NEW&quot;&gt;\nhttp://www.dmtinc.cl/imagenes/VvTk0.png&lt;/a&gt; &lt;a href=&quot;\nhttp://www.dmtinc.cl/imagenes/4WU5F.png&quot; rel=&quot;nofollow&quot; target=&quot;_NEW&quot;&gt;\nhttp://www.dmtinc.cl/imagenes/4WU5F.png&lt;/a&gt;\n\n------------------------------------------------------------------------------\n                               Yerisan Group\n-------------------------------------------------------------------------------\n                         (for your consideration)\n\n                      Please Seed\n   Enjoy  ;)\n\n             Please Seed  :)\n                                    Enjoy\n-------------------------------------------------------------------------------\n     Free Torrents DOES **NOT** MEAN YOU CAN HIT &amp; RUN!!\n-------------------------------------------------------------------------------\t","torrent":{"xt":"urn:btih:8a8142a37e5828572cc0cebb0e451af45aa64a8f","amp;dn":"Filth+%5B2013%5D+R5+DVDRIP+x264+AC3+TiTAN+YG","amp;tr":["udp%3A%2F%2Ftracker.openbittorrent.com%3A80","udp%3A%2F%2Fopen.demonii.com%3A1337","udp%3A%2F%2Ftracker.coppersurfer.tk%3A6969","udp%3A%2F%2Fexodus.desync.com%3A6969"],"infoHash":"8a8142a37e5828572cc0cebb0e451af45aa64a8f","infoHashBuffer":{"type":"Buffer","data":[138,129,66,163,126,88,40,87,44,192,206,187,14,69,26,244,90,166,74,143]},"announce":[],"urlList":[]}}